<svg width="116" height="49" viewBox="0 0 146 49" fill="none" xmlns="http://www.w3.org/2000/svg">
<g clip-path="url(#clip0_1_167)">
<path d="M3.1035 36.2187H0V0.224048C0.0841752 0.158201 0.143952 0.0687489 0.204948 0.0675065C5.55922 0.0140835 10.9403 -0.332544 16.1653 1.29996C23.0176 3.43812 25.3148 11.3547 20.6461 16.7491C19.0053 18.6425 16.8424 19.6315 14.5001 20.2775C14.2854 20.3372 14.0792 20.4303 13.734 20.5595C14.8868 22.0877 16.003 23.5053 17.0534 24.9713C19.6323 28.5742 22.1698 32.2045 24.7499 35.8037C25.2806 36.5415 25.871 37.2326 26.5152 37.8698C27.6351 38.988 29.0075 39.2936 30.53 38.978C32.4318 38.583 34.0946 37.6847 35.5317 36.697C33.5798 35.7341 31.4815 35.0073 29.726 33.7761C25.8284 31.0429 23.8204 27.1666 24.4389 22.2803C25.111 16.9665 28.3292 13.622 33.1309 11.8218C39.1744 9.55442 46.3573 11.9025 50.0537 17.2386C53.816 22.6716 52.1752 30.3832 46.4537 34.2023C44.191 35.7359 41.5409 36.5699 38.823 36.6038C38.4778 36.6038 38.1338 36.6038 37.8471 36.6038C37.7434 36.7728 37.6751 36.8349 37.6678 36.9032C37.4592 38.9979 37.4628 39.0078 35.4182 39.5036C31.7353 40.3968 28.0986 40.4652 24.7048 38.4923C23.5739 37.835 22.4699 36.9554 21.655 35.9292C17.8525 31.1186 14.1548 26.2211 10.4243 21.3522C10.2438 21.1161 10.1059 20.8453 9.93633 20.567C11.2282 20.2291 12.4591 20.0054 13.6205 19.5855C19.0724 17.6151 21.6098 11.6218 19.242 6.36644C17.9513 3.50894 15.5077 2.01806 12.6702 1.47017C9.818 0.917304 6.86333 0.870093 3.94891 0.594281C2.89611 0.496132 3.10716 1.2776 3.10716 1.87519C3.10228 12.8397 3.10228 23.8034 3.10716 34.7663L3.1035 36.2187ZM49.7048 22.6592C49.7512 18.4102 47.4272 14.7079 43.704 13.0928C37.0639 10.2116 28.7977 14.4867 27.0446 21.71C25.6624 27.4027 28.1267 32.8257 33.0357 34.734C40.7457 37.7269 49.7121 31.5199 49.7036 22.6592H49.7048Z" fill="#1F1515"/>
<path d="M99.4243 25.3968L102.334 24.2923C102.7 25.3048 103.041 26.2553 103.372 27.2119C104.413 30.2185 105.352 33.2636 106.522 36.2155C107.081 37.6244 108.009 38.9028 108.896 40.1465C109.276 40.6807 109.977 40.9789 110.757 41.5491V12.051H113.907V41.5156C116.544 40.9963 118.449 39.447 120.707 37.9773C120.707 39.1687 120.763 40.1738 120.666 41.1615C120.643 41.4001 120.133 41.7057 119.804 41.7765C117.864 42.1927 115.909 42.5493 113.867 42.9443C113.441 45.1558 113.079 47.5524 110.556 48.6022C109.195 49.1687 107.614 49.1153 106.667 48.5339C106.716 48.4792 106.77 48.3736 106.81 48.3786C108.996 48.6854 109.778 48.1761 110.276 45.9435C110.533 44.7905 110.632 43.6003 110.811 42.3716C108.593 41.7231 106.574 40.8335 105.232 39.0532C103.967 37.3772 103.004 35.4676 101.865 33.5866C100.686 34.1718 99.3255 34.9533 97.8909 35.536C94.7617 36.8206 91.5594 36.9933 88.3937 35.6913C84.374 34.0414 83.6872 29.5849 86.981 26.7025C89.8125 24.2277 93.2832 23.0623 96.7405 21.9131C98.3374 21.3826 99.9867 21.0186 101.591 20.508C101.895 20.4111 102.323 19.9626 102.308 19.7016C102.211 18.0778 102.126 16.4354 101.798 14.8501C101.432 13.0586 100.212 11.9255 98.4142 11.6385C97.3747 11.4589 96.3168 11.4171 95.2668 11.5143C93.4942 11.7068 92.1938 12.6461 91.7363 14.4774H88.4449L88.2388 14.1879C88.8683 13.594 89.4062 12.8213 90.1419 12.4361C93.7712 10.5291 97.5895 10.3862 101.403 11.7093C103.728 12.5156 104.602 14.5817 105.013 16.9001C105.623 20.3278 105.59 20.3328 102.268 20.9999C98.3325 21.7988 94.5226 22.9878 91.1666 25.3322C88.4449 27.2318 87.5849 29.2693 88.2583 32.0163C88.6865 33.7643 89.7869 34.9197 91.4801 35.3049C95.168 36.1422 98.413 34.7793 101.51 32.9443C101.707 32.8275 101.754 32.1666 101.643 31.8349C100.955 29.729 100.205 27.6368 99.4243 25.3968Z" fill="#1F1515"/>
<path d="M56.3791 11.6783H59.3887V15.4975C59.9193 14.962 60.195 14.6775 60.4768 14.4004C66.324 8.64938 76.8459 10.0247 80.5813 17.089C84.1276 23.7979 82.2184 34.839 70.7364 36.3299C66.6546 36.8592 62.985 35.8789 59.5131 33.1469V48.483H56.3791V11.6783ZM79.2211 24.2265C79.1662 23.6252 79.1381 22.6648 78.9771 21.7281C78.8273 20.8261 78.5999 19.9394 78.2976 19.078C75.4417 11.0397 66.0361 9.06434 60.439 15.3509C59.951 15.8938 59.5314 16.7175 59.5094 17.4219C59.4106 20.5639 59.4497 23.7109 59.4826 26.8567C59.4835 27.6931 59.578 28.5268 59.7644 29.3414C61.3503 35.9634 70.7743 37.4853 75.0757 33.9619C78.0304 31.5343 79.0417 28.263 79.2211 24.2265Z" fill="#1F1515"/>
<path d="M131.598 36.6119C127.738 36.5125 123.801 34.8663 120.837 31.1727C116.967 26.3547 117.445 19.4333 121.893 15.0079C128.675 8.26049 140.634 10.2955 144.889 18.9215C147.502 24.2178 145.356 31.0534 140.048 34.4042C137.687 35.8938 135.124 36.6032 131.598 36.6119ZM130.744 35.4938C137.707 35.7422 143.628 29.6433 143.619 22.2461C143.619 18.0058 140.646 13.932 136.681 12.717C130.436 10.8037 123.473 14.3532 121.256 20.6099C118.957 27.1151 122.293 35.244 130.75 35.4913L130.744 35.4938Z" fill="#1F1515"/>
<path d="M111.774 5.67524C110.701 5.64543 109.675 4.6366 109.72 3.65511C109.768 2.61647 110.756 1.8114 111.933 1.85364C113.068 1.89464 113.935 2.73077 113.909 3.75823C113.882 4.78569 112.868 5.70506 111.774 5.67524Z" fill="#1F1515"/>
</g>
<defs>
<clipPath id="clip0_1_167">
<rect width="146" height="49" fill="white"/>
</clipPath>
</defs>
</svg>
