<svg width="118" height="87" viewBox="0 0 158 87" fill="none" xmlns="http://www.w3.org/2000/svg">
<g clip-path="url(#clip0_1_173)">
<path d="M37.4949 49.8416C42.1423 34.9401 46.1942 20.9827 50.8534 7.23458C53.5068 -0.570524 59.9836 -1.80241 65.9612 3.68875C72.4522 9.65792 80.0591 10.0146 87.0562 4.67806C97.2905 -3.12466 104.412 -1.26732 108.391 11.0396C111.798 21.5772 114.357 32.4145 116.9 43.2137C118.103 48.3338 120.325 50.3481 125.745 49.5491C133.215 48.4409 140.125 47.0021 145.392 40.6714C147.914 37.6393 151.984 33.6487 155.987 37.3135C160.114 41.0828 157.039 46.1436 153.879 48.7072C142.96 57.5706 131.906 66.3864 120.161 74.0583C96.6689 89.4022 71.6046 91.3713 46.5897 78.5245C32.6991 71.39 19.7502 62.2627 6.78482 53.4231C3.67002 51.2994 1.58172 46.9712 0.192655 43.2137C-0.513648 41.2707 0.63998 37.1018 2.20562 36.2267C3.89133 35.2754 7.09088 36.8735 9.52763 37.6749C10.4388 37.9746 11.1898 39.0757 11.7996 39.9604C18.4506 49.5467 28.4024 49.5871 37.4949 49.8416ZM3.23447 36.8735C1.09437 46.1959 6.13031 50.4742 11.0344 53.8107C22.0998 61.3304 33.3041 68.7645 45.097 74.9906C63.7693 84.8504 83.4305 87.4901 103.654 79.509C120.7 72.7789 135.061 61.6729 149.197 50.3553C152.283 47.882 155.648 44.436 154.341 37.8914C151.339 39.8938 148.455 41.0353 146.694 43.1376C141.321 49.5586 134.101 52.02 126.468 51.9106C119.527 51.8131 114.522 54.5051 109.467 58.6098C105.302 61.9916 100.591 64.686 96.1204 67.6872L95.2516 66.3507C99.6331 62.9262 103.758 59.0712 108.462 56.1794C114.847 52.2554 116.42 47.6894 113.891 40.4193C110.315 30.1457 108.262 19.3251 104.685 9.03722C102.249 2.04307 98.2558 1.10132 91.8849 4.71849C88.756 6.49497 86.0838 9.45577 82.783 10.4498C79.4822 11.4439 75.6211 10.671 71.607 10.671C72.2144 12.4689 72.7465 14.0504 73.2785 15.6295C71.056 14.6782 69.8294 13.0397 68.6099 11.4035C67.3079 9.66029 66.1567 7.7768 64.6875 6.18343C60.0895 1.18931 55.3267 1.81714 53.2501 8.15968C49.2784 20.255 45.8881 32.5429 42.1706 44.7262C41.0429 48.4242 42.2248 50.9569 45.203 53.1972C50.0577 56.8476 54.7216 60.7549 59.4656 64.5528L58.2296 66.3912C54.1001 63.5207 49.5656 61.0879 45.954 57.6633C41.994 53.9106 37.8975 52.1817 32.4589 52.1722C23.277 52.1579 15.0792 49.4825 9.41933 41.3064C8.26099 39.6322 5.95844 38.7641 3.23447 36.8735Z" fill="#1F1515"/>
</g>
<defs>
<clipPath id="clip0_1_173">
<rect width="158" height="87" fill="white"/>
</clipPath>
</defs>
</svg>
