<svg width="87" height="18" viewBox="0 0 87 18" fill="none" xmlns="http://www.w3.org/2000/svg">
<g clip-path="url(#clip0_1_75)">
<path d="M38.8411 13.736H37.7951V2.21226C37.8233 2.1903 37.845 2.16158 37.8642 2.16134C39.6688 2.1442 41.4814 2.03342 43.2428 2.55571C45.5526 3.24067 46.3281 5.77489 44.7533 7.50348C44.2002 8.10976 43.4713 8.42617 42.6828 8.63326C42.6102 8.65232 42.5411 8.68153 42.4243 8.72328C42.8127 9.21251 43.1889 9.66649 43.5429 10.1359C44.4113 11.2872 45.2667 12.4505 46.1363 13.6042C46.3152 13.8403 46.5141 14.0616 46.731 14.2657C47.1087 14.622 47.5709 14.7214 48.0843 14.6201C48.7252 14.4938 49.2855 14.2061 49.7714 13.89C49.1129 13.582 48.4061 13.3491 47.8144 12.9547C46.501 12.0796 45.8242 10.8385 46.0325 9.27405C46.259 7.57274 47.3439 6.5021 48.9619 5.9255C50.9988 5.19975 53.4198 5.95157 54.6654 7.66011C55.9334 9.39956 55.3803 11.8686 53.4522 13.0906C52.6706 13.5863 51.8133 13.8426 50.8803 13.8593C50.7643 13.8612 50.648 13.8593 50.5528 13.8593C50.5178 13.9131 50.4946 13.9332 50.4924 13.9558C50.422 14.6266 50.423 14.6299 49.734 14.7888C48.4932 15.0748 47.2664 15.0962 46.1236 14.4649C45.7424 14.2544 45.3705 13.973 45.0968 13.6443C43.8153 12.103 42.5693 10.5351 41.3125 8.97622C41.2514 8.90044 41.2052 8.81379 41.1471 8.72449C41.5824 8.61636 41.9972 8.54516 42.3891 8.41073C44.2264 7.77983 45.0816 5.86082 44.2833 4.17833C43.8482 3.26119 43.0248 2.78644 42.0686 2.61074C41.1044 2.43358 40.1086 2.41765 39.1264 2.33028C38.771 2.29867 38.8428 2.54871 38.8428 2.74034C38.8408 6.25044 38.8408 9.76062 38.8428 13.2709C38.8413 13.4198 38.8411 13.569 38.8411 13.736ZM54.5461 9.39449C54.5618 8.03421 53.7788 6.84747 52.5237 6.32929C50.2858 5.40755 47.4991 6.77652 46.9091 9.08893C46.4434 10.9119 47.2746 12.6479 48.9285 13.2593C51.5264 14.2189 54.5491 12.2314 54.5461 9.39449Z" fill="#FDF0D5"/>
<path d="M71.3037 10.2709L72.2845 9.91727C72.406 10.2412 72.5228 10.5448 72.6338 10.852C72.9843 11.8143 73.3011 12.7896 73.6955 13.7348C73.8836 14.1859 74.1967 14.595 74.4955 14.9932C74.6237 15.1643 74.8597 15.2587 75.1227 15.4424V5.99695H76.1844V15.4315C77.0727 15.2654 77.7151 14.7692 78.4759 14.2986C78.4759 14.6804 78.4951 15.0019 78.4622 15.3183C78.4542 15.3946 78.2826 15.4926 78.1718 15.515C77.5175 15.6485 76.8592 15.7626 76.1709 15.8889C76.0272 16.5972 75.9055 17.3643 75.0548 17.7007C74.5961 17.882 74.0635 17.8648 73.7444 17.6788C73.7606 17.6611 73.7791 17.6273 73.7923 17.629C74.5289 17.727 74.7926 17.5641 74.9605 16.8495C75.0471 16.4802 75.0805 16.0991 75.1409 15.7059C74.3925 15.4981 73.7132 15.2131 73.2604 14.644C72.8346 14.1077 72.5098 13.4961 72.1261 12.8953C71.7285 13.0826 71.27 13.331 70.7865 13.5195C69.7318 13.9298 68.6524 13.9858 67.586 13.5678C66.2304 13.038 65.9981 11.6116 67.1085 10.6889C68.0627 9.89627 69.2326 9.52338 70.3991 9.15532C70.9372 8.98637 71.4933 8.86907 72.0338 8.70543C72.1364 8.6743 72.2808 8.53117 72.2756 8.44742C72.2426 7.92754 72.2142 7.40139 72.1037 6.89407C71.979 6.32037 71.5688 5.95761 70.9632 5.86589C70.6152 5.81328 70.2514 5.79083 69.9027 5.8268C69.304 5.88858 68.8669 6.18883 68.7128 6.77532H67.6014L67.5318 6.68288C67.7439 6.49269 67.9255 6.24555 68.1732 6.12197C69.3955 5.51159 70.6833 5.46573 71.9685 5.88931C72.7523 6.14756 73.0464 6.80911 73.1851 7.55127C73.3899 8.64847 73.3797 8.65016 72.2598 8.86593C70.9337 9.12153 69.6495 9.50287 68.5179 10.2528C67.6009 10.861 67.311 11.5136 67.5378 12.3931C67.682 12.9525 68.0532 13.3225 68.624 13.4459C69.8665 13.714 70.9602 13.2769 72.0039 12.6897C72.0705 12.6523 72.0852 12.4409 72.0488 12.3344C71.8188 11.6579 71.5661 10.9882 71.3037 10.2709Z" fill="#FDF0D5"/>
<path d="M56.796 5.88041H57.8103V7.10335C57.9892 6.93175 58.0817 6.84076 58.1768 6.75194C60.1475 4.91065 63.6939 5.35209 64.9524 7.61285C66.1476 9.76091 65.5044 13.2958 61.6346 13.7732C60.2588 13.9421 59.022 13.6284 57.854 12.7542V17.6633H56.796V5.88041ZM64.4941 9.898C64.4757 9.70491 64.4659 9.39815 64.4123 9.09815C64.3617 8.80943 64.2851 8.52556 64.1833 8.24979C63.2206 5.67598 60.051 5.04339 58.1646 7.05484C58.0017 7.22862 57.859 7.49169 57.8515 7.71784C57.8181 8.72381 57.831 9.73146 57.8423 10.7384C57.8427 11.0055 57.8745 11.2718 57.937 11.532C58.4716 13.6523 61.6478 14.1398 63.0976 13.0112C64.093 12.2358 64.4338 11.1883 64.4941 9.89727V9.898Z" fill="#FDF0D5"/>
<path d="M82.146 13.8618C80.845 13.8297 79.5184 13.3028 78.5191 12.1204C77.2154 10.5774 77.3765 8.36154 78.8753 6.94479C81.1611 4.78419 85.1914 5.43585 86.6253 8.19766C87.5059 9.89342 86.7827 12.0818 84.9938 13.1546C84.1985 13.6318 83.3344 13.8586 82.146 13.8618ZM81.8604 13.5029C84.207 13.5808 86.2027 11.6297 86.1992 9.26131C86.1975 7.90369 85.1976 6.59917 83.8613 6.21011C81.7566 5.59755 79.4099 6.73409 78.6628 8.73757C77.8859 10.8209 79.01 13.4237 81.8604 13.5029Z" fill="#FDF0D5"/>
<path d="M75.4652 3.95637C75.1035 3.94696 74.7577 3.62379 74.7729 3.30979C74.7889 2.97696 75.1222 2.71919 75.5186 2.73295C75.901 2.74598 76.1921 3.01364 76.1846 3.34261C76.1771 3.67158 75.8339 3.96603 75.4652 3.95637Z" fill="#FDF0D5"/>
</g>
<g clip-path="url(#clip1_1_75)">
<path d="M7.61512 9.80506C8.55729 6.87347 9.3823 4.12773 10.33 1.42472C10.8687 -0.110259 12.1839 -0.353767 13.3985 0.727435C14.7158 1.90156 16.2611 1.97143 17.6823 0.922106C19.7587 -0.614233 21.2084 -0.249988 22.0168 2.17085C22.7101 4.24372 23.2286 6.37628 23.7444 8.50002C23.9892 9.50729 24.4377 9.90477 25.5414 9.74673C27.0583 9.52832 28.4616 9.24479 29.532 7.99944C30.0436 7.40322 30.87 6.61843 31.6853 7.33878C32.5242 8.08084 31.8996 9.07658 31.2583 9.58055C29.0398 11.3244 26.7949 13.0588 24.4093 14.5681C19.6381 17.5865 14.5473 17.9738 9.46689 15.4498C6.64382 14.041 4.01557 12.249 1.38247 10.5098C0.750191 10.092 0.325899 9.24004 0.0444247 8.50138C-0.101859 8.11882 0.134552 7.29876 0.452771 7.12715C0.795254 6.94198 1.44486 7.25399 1.94056 7.41136C2.12498 7.47037 2.2775 7.68675 2.4016 7.86107C3.74727 9.74741 5.76889 9.75555 7.61512 9.80506ZM0.65729 7.25399C0.222599 9.08946 1.24797 9.92987 2.24145 10.5858C4.48631 12.0651 6.76445 13.5276 9.15907 14.7526C12.952 16.6925 16.9454 17.2114 21.0531 15.6398C24.5147 14.3157 27.4313 12.133 30.3022 9.90477C30.9262 9.41776 31.6125 8.74082 31.347 7.45274C30.7376 7.84683 30.1511 8.07134 29.7941 8.4851C28.7028 9.74876 27.2365 10.2324 25.6863 10.2107C24.2769 10.1917 23.2598 10.7214 22.2331 11.5286C21.3873 12.194 20.4305 12.7244 19.5223 13.3146L19.3428 13.0534C20.2329 12.3799 21.0704 11.6215 22.0265 11.0531C23.3229 10.2812 23.6425 9.38249 23.1288 7.95264C22.4029 5.93064 21.9856 3.80215 21.2569 1.78015C20.7619 0.402532 19.9515 0.22007 18.6571 0.929568C18.022 1.27889 17.4785 1.86155 16.8088 2.05689C16.1391 2.25224 15.3529 2.09963 14.539 2.09963C14.6617 2.4537 14.7705 2.76504 14.8787 3.07569C14.4274 2.88645 14.1778 2.56629 13.9303 2.24478C13.6654 1.90089 13.4311 1.53054 13.1337 1.21784C12.2019 0.234315 11.2382 0.357764 10.8153 1.60515C10.0083 3.98461 9.31991 6.40206 8.56492 8.79915C8.33613 9.52629 8.57601 10.0248 9.18125 10.4657C10.1671 11.1834 11.1141 11.9519 12.0778 12.6994C11.9937 12.8196 11.91 12.9401 11.8268 13.0609C10.988 12.4959 10.0673 12.0177 9.331 11.3441C8.52748 10.6055 7.69554 10.2656 6.59252 10.2636C4.72619 10.2636 3.063 9.73452 1.91283 8.1256C1.67781 7.79663 1.21053 7.62706 0.65729 7.25399Z" fill="#FDF0D5"/>
</g>
<defs>
<clipPath id="clip0_1_75">
<rect width="49.2049" height="15.6885" fill="white" transform="translate(37.7951 2.1394)"/>
</clipPath>
<clipPath id="clip1_1_75">
<rect width="32.0902" height="17.1148" fill="white"/>
</clipPath>
</defs>
</svg>
