<svg width="132" height="71" viewBox="0 0 132 71" fill="none" xmlns="http://www.w3.org/2000/svg">
<g clip-path="url(#clip0_1_101)">
<path d="M31.3239 40.6749C35.1995 28.5133 38.5931 17.1227 42.4914 5.90933C44.7073 -0.458493 50.1171 -1.46868 55.1134 3.01666C60.5317 7.8875 66.8884 8.17733 72.7345 3.82424C81.2755 -2.54921 87.2386 -1.03815 90.5638 9.00461C93.4155 17.6038 95.5487 26.4507 97.6704 35.261C98.6771 39.4396 100.522 41.0886 105.062 40.4329C111.302 39.5268 117.074 38.3506 121.477 33.1843C123.582 30.7109 126.981 27.4553 130.335 30.4436C133.785 33.522 131.216 37.6528 128.578 39.7435C119.452 46.978 110.218 54.1731 100.405 60.434C80.7793 72.9558 59.8388 74.5626 38.941 64.0921C27.3286 58.2476 16.5175 50.8133 5.68646 43.5985C3.08565 41.8652 1.34036 38.3309 0.182542 35.2666C-0.419182 33.6796 0.553272 30.2776 1.86224 29.5657C3.27101 28.7975 5.94312 30.0919 7.98214 30.7447C8.74071 30.9895 9.3681 31.8871 9.87857 32.6103C15.4139 40.4357 23.7296 40.4695 31.3239 40.6749ZM2.70351 30.0919C0.915447 37.7063 5.13322 41.1927 9.21981 43.9137C18.4538 50.0508 27.8248 56.1175 37.6748 61.1994C53.2768 69.2471 69.7031 71.3997 86.5998 64.88C100.839 59.3873 112.836 50.3322 124.645 41.0886C127.212 39.0682 130.035 36.2599 128.943 30.9164C126.436 32.5512 124.024 33.4826 122.555 35.1991C118.066 40.4414 112.035 42.4477 105.658 42.3576C99.8605 42.2788 95.677 44.4765 91.4535 47.825C87.9744 50.5854 84.0389 52.7859 80.3031 55.234L79.5645 54.1506C83.2262 51.3564 86.6711 48.2105 90.6037 45.8525C95.9365 42.6503 97.2512 38.9219 95.138 32.9902C92.1522 24.602 90.4354 15.772 87.4382 7.38381C85.4021 1.66881 82.0683 0.91187 76.7441 3.8552C74.1319 5.30435 71.8961 7.72148 69.1413 8.53188C66.3864 9.34228 63.1525 8.70915 59.8046 8.70915C60.3093 10.178 60.757 11.4696 61.2019 12.7583C59.3454 11.9733 58.3188 10.6451 57.3007 9.31132C56.2113 7.88468 55.2474 6.3483 54.024 5.0511C50.1912 0.970962 46.2273 1.48309 44.4877 6.65783C41.1682 16.5289 38.3364 26.5576 35.2308 36.5019C34.2897 39.5184 35.2765 41.5866 37.766 43.4156C41.8213 46.3927 45.7168 49.5809 49.6808 52.6818C49.3347 53.1808 48.9906 53.6807 48.6484 54.1816C45.1978 51.8376 41.4106 49.8538 38.382 47.0596C35.0768 43.9953 31.6547 42.5855 27.1175 42.5771C19.4406 42.5771 12.5992 40.3823 7.86807 33.7077C6.90132 32.343 4.97922 31.6395 2.70351 30.0919Z" fill="#FDF0D5"/>
</g>
<defs>
<clipPath id="clip0_1_101">
<rect width="132" height="71" fill="white"/>
</clipPath>
</defs>
</svg>
