<svg width="179" height="59" viewBox="0 0 179 59" fill="none" xmlns="http://www.w3.org/2000/svg">
<g clip-path="url(#clip0_1_86)">
<path d="M3.80515 43.61H0V0.272646C0.102548 0.190049 0.1815 0.0820366 0.251378 0.0811289C6.81624 0.0166848 13.4101 -0.399933 19.818 1.56425C28.2206 4.1402 31.042 13.6707 25.3129 20.1714C23.301 22.4514 20.6493 23.6414 17.7807 24.4202C17.5166 24.4919 17.2652 24.6017 16.8405 24.7587C18.2535 26.5985 19.622 28.3059 20.9097 30.0713C24.0687 34.4008 27.1806 38.7758 30.3441 43.1144C30.9948 44.0024 31.7185 44.8346 32.5076 45.6023C33.8815 46.942 35.5631 47.316 37.4308 46.9348C39.7621 46.4601 41.8004 45.3781 43.5682 44.1891C41.1724 43.0309 38.6015 42.155 36.4489 40.6719C31.6709 37.3807 29.2088 32.7135 29.9666 26.83C30.7906 20.4319 34.7373 16.4055 40.6234 14.2371C48.0331 11.5077 56.8404 14.3351 61.3716 20.7604C65.9844 27.302 63.9725 36.5874 56.9584 41.1829C54.1149 43.0472 50.9961 44.0109 47.602 44.0738C47.1801 44.0811 46.7572 44.0738 46.4105 44.0738C46.2834 44.2762 46.199 44.3516 46.1909 44.4369C45.935 46.9593 45.9386 46.972 43.4321 47.5692C38.9182 48.6448 34.4551 48.7256 30.2978 46.3511C28.9112 45.5597 27.5581 44.5013 26.5625 43.2651C21.9007 37.4687 17.3678 31.5725 12.7958 25.7099C12.5734 25.4249 12.4055 25.0991 12.1941 24.7632C13.7777 24.3566 15.2869 24.0889 16.7125 23.5833C23.3963 21.2106 26.5072 13.9938 23.6032 7.66648C22.0205 4.21736 19.0248 2.43198 15.5464 1.7712C12.0389 1.10497 8.41616 1.04507 4.84333 0.716494C3.55014 0.59759 3.8115 1.53793 3.8115 2.25862C3.80424 15.4591 3.80424 28.6598 3.8115 41.8609C3.80606 42.4209 3.80515 42.9819 3.80515 43.61ZM60.9378 27.2829C60.9949 22.1673 58.1463 17.7043 53.5807 15.7556C45.4395 12.2892 35.3018 17.4375 33.1555 26.1338C31.4612 32.9894 34.485 39.5182 40.5018 41.8174C49.9525 45.4262 60.9487 37.9516 60.9378 27.2829Z" fill="#FDF0D5"/>
<path d="M121.899 30.5801L125.467 29.2504C125.909 30.4685 126.334 31.6103 126.738 32.7658C128.013 36.3847 129.166 40.0525 130.6 43.6069C131.285 45.3034 132.423 46.8419 133.511 48.3395C133.977 48.983 134.836 49.3379 135.792 50.0287V14.5072H139.654V49.9878C142.886 49.3634 145.223 47.4972 147.991 45.7273C147.991 47.1632 148.061 48.3722 147.941 49.5621C147.912 49.849 147.287 50.2175 146.884 50.3019C144.504 50.8038 142.109 51.2331 139.605 51.7079C139.083 54.3718 138.64 57.2564 135.545 58.5217C133.876 59.2033 131.939 59.1389 130.778 58.4391C130.837 58.3728 130.904 58.2458 130.952 58.2521C133.632 58.6206 134.591 58.0079 135.202 55.3204C135.517 53.9316 135.639 52.4984 135.858 51.0198C133.136 50.2383 130.665 49.1664 129.018 47.0261C127.468 45.0093 126.287 42.7093 124.891 40.4501C123.445 41.1544 121.777 42.0884 120.018 42.7973C116.181 44.3403 112.254 44.5509 108.375 42.9788C103.443 40.9865 102.598 35.6222 106.638 32.1522C110.109 29.1715 114.365 27.7691 118.609 26.3849C120.566 25.7496 122.589 25.3084 124.555 24.693C124.928 24.5759 125.454 24.0377 125.435 23.7227C125.315 21.7676 125.212 19.7889 124.81 17.881C124.356 15.7235 122.864 14.3593 120.66 14.0144C119.394 13.8165 118.071 13.7321 116.803 13.8673C114.625 14.0997 113.035 15.2288 112.474 17.4344H108.431L108.178 17.0868C108.949 16.3716 109.61 15.4421 110.511 14.9774C114.958 12.6819 119.642 12.5095 124.318 14.1024C127.169 15.0736 128.239 17.5615 128.744 20.3526C129.489 24.4788 129.451 24.4852 125.378 25.2966C120.553 26.2578 115.882 27.692 111.765 30.5121C108.429 32.7994 107.375 35.2537 108.2 38.5612C108.724 40.6652 110.074 42.0567 112.151 42.5205C116.671 43.5289 120.65 41.8851 124.447 39.6768C124.689 39.5361 124.742 38.741 124.61 38.3407C123.773 35.7965 122.854 33.2777 121.899 30.5801Z" fill="#FDF0D5"/>
<path d="M69.1225 14.0688H72.8124V18.6679C73.4631 18.0226 73.7998 17.6804 74.1455 17.3464C81.3148 10.4218 94.2158 12.0819 98.7941 20.584C103.142 28.6622 100.802 41.9559 86.7244 43.7512C81.7195 44.3866 77.2201 43.2066 72.9712 39.9191V58.381H69.1225V14.0688ZM97.1271 29.1778C97.0599 28.4517 97.0245 27.298 96.8294 26.1698C96.6454 25.084 96.3667 24.0164 95.9963 22.9793C92.4943 13.3 80.9636 10.921 74.101 18.4855C73.5084 19.139 72.9894 20.1284 72.9621 20.9789C72.8405 24.762 72.8877 28.5515 72.9286 32.3383C72.9303 33.3429 73.046 34.3441 73.2734 35.3227C75.2182 43.2965 86.7725 45.13 92.0469 40.8857C95.6678 37.9694 96.9075 34.0302 97.1271 29.1751V29.1778Z" fill="#FDF0D5"/>
<path d="M161.342 44.0843C156.609 43.9636 151.783 41.9822 148.148 37.5355C143.405 31.7328 143.991 23.3996 149.444 18.0716C157.759 9.94616 172.421 12.3969 177.637 22.7833C180.84 29.1605 178.21 37.3903 171.702 41.4249C168.809 43.2193 165.665 44.0725 161.342 44.0843ZM160.303 42.7346C168.84 43.0278 176.1 35.6902 176.087 26.7833C176.081 21.6777 172.443 16.7718 167.582 15.3086C159.925 13.005 151.388 17.2792 148.67 24.8137C145.844 32.6487 149.934 42.4369 160.303 42.7346Z" fill="#FDF0D5"/>
<path d="M137.038 6.83291C135.722 6.79751 134.464 5.58215 134.52 4.40128C134.578 3.14961 135.79 2.18022 137.232 2.23196C138.623 2.28097 139.683 3.28757 139.655 4.52472C139.628 5.76187 138.379 6.86922 137.038 6.83291Z" fill="#FDF0D5"/>
</g>
<defs>
<clipPath id="clip0_1_86">
<rect width="179" height="59" fill="white"/>
</clipPath>
</defs>
</svg>
